<svg id="Camada_1" data-name="Camada 1" xmlns="http://www.w3.org/2000/svg" viewBox="0 0 504.6 133.44"><defs><style>.cls-1{isolation:isolate;}.cls-2{fill:#2c2c2c;}.cls-3{fill:#eef26b;}</style></defs><g class="cls-1"><path class="cls-2" d="M4.1,7.23h48V20.89H35.87v54.6H20.32V20.89H4.1Z" transform="translate(-2.79 -4.34)"/><path class="cls-2" d="M57.71,4.34H72.35V37.52h.17c3.31-3.31,7.53-5.71,12.16-5.71,7.78,0,18.62,3.88,18.62,15.72v28H88.65v-24c0-4.22-2.89-8.28-7.61-8.28-4.38,0-8.69,4.06-8.69,8.28v24H57.71Z" transform="translate(-2.79 -4.34)"/><path class="cls-2" d="M128.61,15.51a8.69,8.69,0,1,1-8.69-8.69A8.68,8.68,0,0,1,128.61,15.51Zm-16.22,60H127V33.05H112.39Z" transform="translate(-2.79 -4.34)"/><path class="cls-2" d="M155.41,31.81a19.3,19.3,0,0,1,13.9,5.29V33.05H184V75.49H169.48v-4.8h-.17a18.76,18.76,0,0,1-13.9,6c-12.41,0-21.09-10-21.09-22.42S143,31.81,155.41,31.81Zm4.39,32.43a9.54,9.54,0,0,0,9.84-9.93,9.89,9.89,0,1,0-19.77,0C149.87,60.1,153.84,64.24,159.8,64.24Z" transform="translate(-2.79 -4.34)"/><path class="cls-2" d="M204,80c1.57,2.57,5.13,5.46,11.5,5.46,4.05,0,10.34-2.4,10.34-9.93V72.43c-3.15,3.47-8.11,4.3-13.9,4.3-12.41,0-21.1-10-21.1-22.42s8.69-22.5,21.1-22.5a19.43,19.43,0,0,1,13.65,5h.25v-3.8h14.64v43.6c0,14.23-10.51,21.59-25,21.59-8.86,0-19-2-23.5-12.32Zm12.32-15.8a9.54,9.54,0,0,0,9.85-9.93,9.89,9.89,0,1,0-19.77,0C206.38,60.1,210.35,64.24,216.3,64.24Z" transform="translate(-2.79 -4.34)"/><path class="cls-2" d="M272.48,31.81c14.06,0,25.31,9.26,25.31,22.5,0,13.07-10.67,22.42-25.31,22.42-15.31,0-25.57-9.35-25.57-22.42C246.91,41.07,258.17,31.81,272.48,31.81Zm-.08,32.43a9.54,9.54,0,0,0,9.84-9.93,9.89,9.89,0,1,0-19.77,0C262.47,60.1,266.44,64.24,272.4,64.24Z" transform="translate(-2.79 -4.34)"/></g><g class="cls-1"><path class="cls-3" d="M359.72,56.22c0,13.41-7.61,20.52-21.26,20.52a23.62,23.62,0,0,1-16-6.53l5-13s4.88,4.63,8.85,4.63c4.47,0,7.86-2.73,7.86-9.6v-45h15.55Z" transform="translate(-2.79 -4.34)"/><path class="cls-3" d="M391.33,31.82c14.07,0,25.32,9.26,25.32,22.5,0,13.07-10.67,22.42-25.32,22.42-15.3,0-25.56-9.35-25.56-22.42C365.77,41.08,377,31.82,391.33,31.82Zm-.08,32.43a9.54,9.54,0,0,0,9.84-9.93,9.89,9.89,0,1,0-19.77,0C381.32,60.11,385.29,64.25,391.25,64.25Z" transform="translate(-2.79 -4.34)"/><path class="cls-3" d="M455.87,35.13l-4.8,9.59s-5-2.64-9.43-2.64c-3.23,0-4.55.58-4.55,2.56,0,2.23,3,2.9,6.62,4,5.62,1.74,12.9,4.89,12.9,13.57,0,12.5-11.41,14.48-20.1,14.48A25.38,25.38,0,0,1,420.13,71l5.95-10s5.8,4.88,10.51,4.88c2.07,0,4.55-.25,4.55-3.06,0-3.06-4.63-3.31-9.43-5.79-4.3-2.23-8.6-5.21-8.6-11.58,0-8.69,7.36-13.65,18.53-13.65A32.4,32.4,0,0,1,455.87,35.13Z" transform="translate(-2.79 -4.34)"/><path class="cls-3" d="M476.06,56.31c0,6.53,5.46,8.77,9.18,8.77,4.72,0,6.78-.91,10.34-4.72l10.59,5.29c-4.8,8-12.57,11.09-22,11.09-12.83,0-23.34-10.09-23.34-22.42s10.51-22.5,23.34-22.5,22.75,7.61,22.75,22.5a14.15,14.15,0,0,1-.09,2ZM492.6,48.2c-.66-4.47-3.72-6.87-8-6.87-5.05,0-7.86,3-8.11,6.87ZM495.83,6l7.53,9.52L483.67,26.94,479,20.57Z" transform="translate(-2.79 -4.34)"/></g><g class="cls-1"><path class="cls-2" d="M25,137.51H22.52a1.09,1.09,0,0,1-.69-.21,1.37,1.37,0,0,1-.4-.55L19.21,131H8.58l-2.22,5.73a1.33,1.33,0,0,1-.4.53,1.08,1.08,0,0,1-.69.23H2.79l9.48-23.71h3.26Zm-15.54-8.8h8.85l-3.72-9.65a18,18,0,0,1-.71-2.23c-.12.45-.24.87-.36,1.25s-.23.71-.34,1Z" transform="translate(-2.79 -4.34)"/><path class="cls-2" d="M46.84,113.91a1.8,1.8,0,0,1,.47.44L61,132.22c0-.29-.06-.57-.07-.84s0-.53,0-.79V113.8h2.81v23.71H62.15a1.38,1.38,0,0,1-.64-.13,1.58,1.58,0,0,1-.5-.45L47.29,119.08c0,.27,0,.55.05.81s0,.51,0,.73v16.89H44.54V113.8H46.2A1.47,1.47,0,0,1,46.84,113.91Z" transform="translate(-2.79 -4.34)"/><path class="cls-2" d="M105.61,137.51h-2.48a1.05,1.05,0,0,1-.69-.21,1.37,1.37,0,0,1-.4-.55L99.82,131H89.18L87,136.75a1.33,1.33,0,0,1-.4.53,1.09,1.09,0,0,1-.7.23H83.39l9.48-23.71h3.26Zm-15.53-8.8h8.85l-3.72-9.65a17.87,17.87,0,0,1-.72-2.23c-.12.45-.24.87-.35,1.25s-.23.71-.34,1Z" transform="translate(-2.79 -4.34)"/><path class="cls-2" d="M128.36,134.81h10.26v2.7H125.15V113.8h3.21Z" transform="translate(-2.79 -4.34)"/><path class="cls-2" d="M162.51,137.51H159.3V113.8h3.21Z" transform="translate(-2.79 -4.34)"/><path class="cls-2" d="M197.55,117.51a1.32,1.32,0,0,1-.31.37.73.73,0,0,1-.43.12,1.14,1.14,0,0,1-.66-.28,9.6,9.6,0,0,0-.94-.62,8.44,8.44,0,0,0-1.37-.62,5.91,5.91,0,0,0-2-.28,5.83,5.83,0,0,0-1.9.29,3.87,3.87,0,0,0-1.38.79,3.29,3.29,0,0,0-.84,1.16,3.86,3.86,0,0,0-.28,1.45,2.74,2.74,0,0,0,.49,1.65,4.4,4.4,0,0,0,1.29,1.11,10.19,10.19,0,0,0,1.82.81l2.09.7a21.9,21.9,0,0,1,2.08.82,6.94,6.94,0,0,1,1.82,1.15,5.08,5.08,0,0,1,1.29,1.7,5.59,5.59,0,0,1,.49,2.48,8.05,8.05,0,0,1-.53,2.92,6.76,6.76,0,0,1-1.55,2.38,7.34,7.34,0,0,1-2.5,1.59,9.28,9.28,0,0,1-3.36.57,10.26,10.26,0,0,1-4.2-.83,9.84,9.84,0,0,1-3.23-2.26l.93-1.52a1.18,1.18,0,0,1,.32-.31.76.76,0,0,1,.42-.12,1.28,1.28,0,0,1,.79.37,13.23,13.23,0,0,0,1.12.82,8.72,8.72,0,0,0,1.62.82,6.4,6.4,0,0,0,2.33.37,6.06,6.06,0,0,0,2-.31,4.39,4.39,0,0,0,1.52-.89,3.84,3.84,0,0,0,1-1.36,4.58,4.58,0,0,0,.33-1.77,3,3,0,0,0-.49-1.77,4.19,4.19,0,0,0-1.28-1.15,9.39,9.39,0,0,0-1.81-.78l-2.09-.66a20.73,20.73,0,0,1-2.08-.79,6.52,6.52,0,0,1-1.81-1.16,5.27,5.27,0,0,1-1.29-1.78,6.79,6.79,0,0,1,0-5.07,6.26,6.26,0,0,1,1.42-2.08,6.92,6.92,0,0,1,2.29-1.46,8.45,8.45,0,0,1,3.13-.54,10,10,0,0,1,3.63.63,8.29,8.29,0,0,1,2.86,1.81Z" transform="translate(-2.79 -4.34)"/><path class="cls-2" d="M235.64,113.8v2.7H228v21h-3.21v-21h-7.69v-2.7Z" transform="translate(-2.79 -4.34)"/><path class="cls-2" d="M272.88,137.51H270.4a1.05,1.05,0,0,1-.69-.21,1.37,1.37,0,0,1-.4-.55L267.09,131H256.45l-2.21,5.73a1.33,1.33,0,0,1-.4.53,1.09,1.09,0,0,1-.7.23h-2.48l9.48-23.71h3.26Zm-15.53-8.8h8.85l-3.73-9.65a18,18,0,0,1-.71-2.23c-.12.45-.24.87-.35,1.25s-.23.71-.34,1Z" transform="translate(-2.79 -4.34)"/><path class="cls-2" d="M335.9,125.66a13.38,13.38,0,0,1-.84,4.85,10.67,10.67,0,0,1-2.39,3.74,10.55,10.55,0,0,1-3.68,2.41,12.85,12.85,0,0,1-4.77.85h-8.87V113.8h8.87a13.06,13.06,0,0,1,4.77.85,10.58,10.58,0,0,1,3.68,2.42,10.71,10.71,0,0,1,2.39,3.75A13.36,13.36,0,0,1,335.9,125.66Zm-3.29,0a11.83,11.83,0,0,0-.6-3.9,8.16,8.16,0,0,0-1.68-2.91,7.22,7.22,0,0,0-2.65-1.82,9.15,9.15,0,0,0-3.46-.63h-5.64v18.51h5.64a9.15,9.15,0,0,0,3.46-.63,7.32,7.32,0,0,0,2.65-1.81,8.11,8.11,0,0,0,1.68-2.9A11.85,11.85,0,0,0,332.61,125.66Z" transform="translate(-2.79 -4.34)"/><path class="cls-2" d="M371.42,113.8v2.62H360v7.87h9.21v2.51H360v8.1h11.38v2.61H356.81V113.8Z" transform="translate(-2.79 -4.34)"/><path class="cls-2" d="M427.66,117.51a1.33,1.33,0,0,1-.32.37.71.71,0,0,1-.43.12,1.14,1.14,0,0,1-.65-.28,11,11,0,0,0-.94-.62,8.19,8.19,0,0,0-1.38-.62,6.61,6.61,0,0,0-3.84,0,3.79,3.79,0,0,0-1.38.79,3.29,3.29,0,0,0-.84,1.16,3.67,3.67,0,0,0-.28,1.45,2.67,2.67,0,0,0,.49,1.65,4.16,4.16,0,0,0,1.29,1.11,9.88,9.88,0,0,0,1.82.81l2.08.7a22.09,22.09,0,0,1,2.09.82,7.11,7.11,0,0,1,1.82,1.15,5.36,5.36,0,0,1,1.29,1.7,5.74,5.74,0,0,1,.49,2.48,8.05,8.05,0,0,1-.53,2.92,6.9,6.9,0,0,1-1.55,2.38,7.34,7.34,0,0,1-2.5,1.59,9.34,9.34,0,0,1-3.37.57,10.21,10.21,0,0,1-4.19-.83,9.84,9.84,0,0,1-3.23-2.26l.92-1.52a1.57,1.57,0,0,1,.32-.31.8.8,0,0,1,.43-.12,1.3,1.3,0,0,1,.79.37,13.23,13.23,0,0,0,1.12.82,8.14,8.14,0,0,0,1.62.82,6.34,6.34,0,0,0,2.32.37,6.16,6.16,0,0,0,2-.31,4.35,4.35,0,0,0,1.51-.89,3.72,3.72,0,0,0,.95-1.36,4.58,4.58,0,0,0,.33-1.77,3,3,0,0,0-.48-1.77,4.23,4.23,0,0,0-1.29-1.15,9.13,9.13,0,0,0-1.81-.78l-2.08-.66a21.89,21.89,0,0,1-2.09-.79,6.67,6.67,0,0,1-1.81-1.16,5.12,5.12,0,0,1-1.28-1.78,6.49,6.49,0,0,1,1.41-7.15,7,7,0,0,1,2.3-1.46,8.45,8.45,0,0,1,3.13-.54,10,10,0,0,1,3.62.63,8.24,8.24,0,0,1,2.87,1.81Z" transform="translate(-2.79 -4.34)"/><path class="cls-2" d="M464.21,113.8v2.62H452.82v7.87H462v2.51h-9.22v8.1h11.39v2.61H449.6V113.8Z" transform="translate(-2.79 -4.34)"/><path class="cls-2" d="M507.39,125.66a13.5,13.5,0,0,1-.85,4.89,11,11,0,0,1-2.38,3.83,10.6,10.6,0,0,1-3.7,2.49,13.2,13.2,0,0,1-9.53,0,10.55,10.55,0,0,1-3.69-2.49,11.2,11.2,0,0,1-2.39-3.83,14.65,14.65,0,0,1,0-9.78,11.3,11.3,0,0,1,2.39-3.83,10.6,10.6,0,0,1,3.69-2.51,13.2,13.2,0,0,1,9.53,0,10.64,10.64,0,0,1,3.7,2.51,11.12,11.12,0,0,1,2.38,3.83A13.58,13.58,0,0,1,507.39,125.66Zm-3.29,0a12,12,0,0,0-.6-3.92,8.27,8.27,0,0,0-1.69-2.93,7.38,7.38,0,0,0-2.64-1.85,9.73,9.73,0,0,0-6.94,0,7.42,7.42,0,0,0-2.65,1.85,8.14,8.14,0,0,0-1.7,2.93,13.32,13.32,0,0,0,0,7.84,8.09,8.09,0,0,0,1.7,2.92,7.27,7.27,0,0,0,2.65,1.84,9.73,9.73,0,0,0,6.94,0,7.23,7.23,0,0,0,2.64-1.84,8.22,8.22,0,0,0,1.69-2.92A12,12,0,0,0,504.1,125.66Z" transform="translate(-2.79 -4.34)"/></g></svg>